{
  "accessors": [
    {
      "bufferView": 2,
      "componentType": 5126,
      "count": 2712,
      "max": [
        10.92788314819336,
        13.085426330566406,
        0.10941886901855469
      ],
      "min": [
        5.342645645141602,
        8.20806884765625,
        -5.934200286865234
      ],
      "type": "VEC3"
    },
    {
      "bufferView": 2,
      "byteOffset": 32544,
      "componentType": 5126,
      "count": 2712,
      "max": [
        0.9775649309158325,
        0.9984911680221558,
        0.9940849542617798
      ],
      "min": [
        -0.9976575374603271,
        -0.9996770024299622,
        -0.9982261657714844
      ],
      "type": "VEC3"
    },
    {
      "bufferView": 3,
      "componentType": 5126,
      "count": 2712,
      "max": [
        0.9903306365013123,
        0.9989989995956421,
        0.9933485388755798,
        1.0
      ],
      "min": [
        -0.997580885887146,
        -0.9993768930435181,
        -0.990278422832489,
        1.0
      ],
      "type": "VEC4"
    },
    {
      "bufferView": 1,
      "componentType": 5126,
      "count": 2712,
      "max": [
        0.9957191944122314,
        0.9972203373908997
      ],
      "min": [
        0.007097932510077953,
        0.11903852224349976
      ],
      "type": "VEC2"
    },
    {
      "bufferView": 0,
      "componentType": 5125,
      "count": 10320,
      "type": "SCALAR"
    },
    {
      "bufferView": 2,
      "byteOffset": 65088,
      "componentType": 5126,
      "count": 168,
      "max": [
        10.32070541381836,
        12.44854736328125,
        -0.34328556060791016
      ],
      "min": [
        5.7351226806640625,
        8.415897369384766,
        -5.362819671630859
      ],
      "type": "VEC3"
    },
    {
      "bufferView": 2,
      "byteOffset": 67104,
      "componentType": 5126,
      "count": 168,
      "max": [
        0.9148122668266296,
        0.9951719641685486,
        0.9370752573013306
      ],
      "min": [
        -0.9279899001121521,
        -0.9954584836959839,
        -0.9209455847740173
      ],
      "type": "VEC3"
    },
    {
      "bufferView": 3,
      "byteOffset": 43392,
      "componentType": 5126,
      "count": 168,
      "max": [
        0.9162455201148987,
        0.9898529052734375,
        0.9217200875282288,
        1.0
      ],
      "min": [
        -0.913481593132019,
        -0.9944233894348145,
        -0.9359189867973328,
        1.0
      ],
      "type": "VEC4"
    },
    {
      "bufferView": 1,
      "byteOffset": 21696,
      "componentType": 5126,
      "count": 168,
      "max": [
        0.10494952648878098,
        0.990085780620575
      ],
      "min": [
        0.01843160018324852,
        0.9604228138923645
      ],
      "type": "VEC2"
    },
    {
      "bufferView": 0,
      "byteOffset": 41280,
      "componentType": 5125,
      "count": 480,
      "type": "SCALAR"
    },
    {
      "bufferView": 2,
      "byteOffset": 69120,
      "componentType": 5126,
      "count": 6735,
      "max": [
        0.5704494714736938,
        23.651363372802734,
        9.417101860046387
      ],
      "min": [
        -11.844244003295898,
        12.040410995483398,
        -8.95327377319336
      ],
      "type": "VEC3"
    },
    {
      "bufferView": 2,
      "byteOffset": 149940,
      "componentType": 5126,
      "count": 6735,
      "max": [
        0.9989950060844421,
        0.9999622106552124,
        0.9975520968437195
      ],
      "min": [
        -0.9989950060844421,
        -0.9997426271438599,
        -0.9997807741165161
      ],
      "type": "VEC3"
    },
    {
      "bufferView": 3,
      "byteOffset": 46080,
      "componentType": 5126,
      "count": 6735,
      "max": [
        0.9998186230659485,
        0.9975118041038513,
        0.9997124075889587,
        1.0
      ],
      "min": [
        -0.9997255802154541,
        -0.9997852444648743,
        -0.9996950030326843,
        1.0
      ],
      "type": "VEC4"
    },
    {
      "bufferView": 1,
      "byteOffset": 23040,
      "componentType": 5126,
      "count": 6735,
      "max": [
        0.9928761720657349,
        0.9959163665771484
      ],
      "min": [
        0.006435230374336243,
        0.012067347764968872
      ],
      "type": "VEC2"
    },
    {
      "bufferView": 0,
      "byteOffset": 43200,
      "componentType": 5125,
      "count": 32580,
      "type": "SCALAR"
    },
    {
      "bufferView": 2,
      "byteOffset": 230760,
      "componentType": 5126,
      "count": 9056,
      "max": [
        9.079153060913086,
        20.189586639404297,
        4.221607208251953
      ],
      "min": [
        -7.3336663246154785,
        4.363251209259033,
        -5.114727020263672
      ],
      "type": "VEC3"
    },
    {
      "bufferView": 2,
      "byteOffset": 339432,
      "componentType": 5126,
      "count": 9056,
      "max": [
        0.9999704957008362,
        0.9993494749069214,
        0.9999338388442993
      ],
      "min": [
        -0.9996941685676575,
        -0.9999825358390808,
        -0.9994617104530334
      ],
      "type": "VEC3"
    },
    {
      "bufferView": 3,
      "byteOffset": 153840,
      "componentType": 5126,
      "count": 9056,
      "max": [
        0.9997962713241577,
        0.9999520182609558,
        0.9998952150344849,
        1.0
      ],
      "min": [
        -0.9999581575393677,
        -0.9997758269309998,
        -0.9999510049819946,
        -1.0
      ],
      "type": "VEC4"
    },
    {
      "bufferView": 1,
      "byteOffset": 76920,
      "componentType": 5126,
      "count": 9056,
      "max": [
        0.9955353736877441,
        0.9904834628105164
      ],
      "min": [
        0.0017977957613766193,
        0.0019946694374084473
      ],
      "type": "VEC2"
    },
    {
      "bufferView": 1,
      "byteOffset": 149368,
      "componentType": 5126,
      "count": 9056,
      "max": [
        0.9844706058502197,
        0.9805425405502319
      ],
      "min": [
        0.0,
        0.0
      ],
      "type": "VEC2"
    },
    {
      "bufferView": 0,
      "byteOffset": 173520,
      "componentType": 5125,
      "count": 45174,
      "type": "SCALAR"
    },
    {
      "bufferView": 2,
      "byteOffset": 448104,
      "componentType": 5126,
      "count": 14963,
      "max": [
        15.45043659210205,
        5.429481029510498,
        11.461795806884766
      ],
      "min": [
        -18.355606079101563,
        -0.5827904939651489,
        -13.106010437011719
      ],
      "type": "VEC3"
    },
    {
      "bufferView": 2,
      "byteOffset": 627660,
      "componentType": 5126,
      "count": 14963,
      "max": [
        0.9997702836990356,
        0.9999401569366455,
        0.9995967745780945
      ],
      "min": [
        -0.9998509287834167,
        -0.999319314956665,
        -0.9999290108680725
      ],
      "type": "VEC3"
    },
    {
      "bufferView": 3,
      "byteOffset": 298736,
      "componentType": 5126,
      "count": 14963,
      "max": [
        0.9997910261154175,
        0.9997363090515137,
        0.9953934550285339,
        1.0
      ],
      "min": [
        -0.9993409514427185,
        -0.9999349117279053,
        -0.9985442161560059,
        1.0
      ],
      "type": "VEC4"
    },
    {
      "bufferView": 1,
      "byteOffset": 221816,
      "componentType": 5126,
      "count": 14963,
      "max": [
        4.9478044509887695,
        0.9834856986999512
      ],
      "min": [
        -2.979182004928589,
        -0.997261643409729
      ],
      "type": "VEC2"
    },
    {
      "bufferView": 0,
      "byteOffset": 354216,
      "componentType": 5125,
      "count": 64062,
      "type": "SCALAR"
    },
    {
      "bufferView": 2,
      "byteOffset": 807216,
      "componentType": 5126,
      "count": 1115,
      "max": [
        0.4376446306705475,
        0.005982852540910244,
        0.3461834490299225
      ],
      "min": [
        -0.45672452449798584,
        -0.595400869846344,
        -0.3644011914730072
      ],
      "type": "VEC3"
    },
    {
      "bufferView": 2,
      "byteOffset": 820596,
      "componentType": 5126,
      "count": 1115,
      "max": [
        0.9957306981086731,
        1.0,
        0.9982233047485352
      ],
      "min": [
        -0.997160792350769,
        -1.0,
        -0.9926229119300842
      ],
      "type": "VEC3"
    },
    {
      "bufferView": 3,
      "byteOffset": 538144,
      "componentType": 5126,
      "count": 1115,
      "max": [
        1.0,
        0.9999958276748657,
        0.43646422028541565,
        1.0
      ],
      "min": [
        0.0026909662410616875,
        -0.9999358654022217,
        -0.32944685220718384,
        -1.0
      ],
      "type": "VEC4"
    },
    {
      "bufferView": 1,
      "byteOffset": 341520,
      "componentType": 5126,
      "count": 1115,
      "max": [
        0.985845685005188,
        0.985845685005188
      ],
      "min": [
        0.014154165983200073,
        0.014154285192489624
      ],
      "type": "VEC2"
    },
    {
      "bufferView": 0,
      "byteOffset": 610464,
      "componentType": 5125,
      "count": 5946,
      "type": "SCALAR"
    },
    {
      "bufferView": 2,
      "byteOffset": 833976,
      "componentType": 5126,
      "count": 1428,
      "max": [
        2.965219020843506,
        8.871249198913574,
        4.355677604675293
      ],
      "min": [
        -6.6643757820129395,
        3.490593194961548,
        -8.915936470031738
      ],
      "type": "VEC3"
    },
    {
      "bufferView": 2,
      "byteOffset": 851112,
      "componentType": 5126,
      "count": 1428,
      "max": [
        1.0,
        1.0,
        0.970062792301178
      ],
      "min": [
        -1.0,
        -1.0,
        -0.9700655937194824
      ],
      "type": "VEC3"
    },
    {
      "bufferView": 1,
      "byteOffset": 350440,
      "componentType": 5126,
      "count": 1428,
      "max": [
        0.5149942636489868,
        0.3741856813430786
      ],
      "min": [
        0.023838303983211517,
        0.03506308048963547
      ],
      "type": "VEC2"
    },
    {
      "bufferView": 0,
      "byteOffset": 634248,
      "componentType": 5125,
      "count": 6480,
      "type": "SCALAR"
    },
    {
      "bufferView": 2,
      "byteOffset": 868248,
      "componentType": 5126,
      "count": 24,
      "max": [
        0.5,
        0.05951537564396858,
        0.5
      ],
      "min": [
        -0.5,
        -0.048849765211343765,
        -0.5
      ],
      "type": "VEC3"
    },
    {
      "bufferView": 2,
      "byteOffset": 868536,
      "componentType": 5126,
      "count": 24,
      "max": [
        0.0,
        0.9975839257240295,
        0.6070512533187866
      ],
      "min": [
        0.0,
        0.7946627140045166,
        -0.6070512533187866
      ],
      "type": "VEC3"
    },
    {
      "bufferView": 1,
      "byteOffset": 361864,
      "componentType": 5126,
      "count": 24,
      "max": [
        0.856298565864563,
        1.0
      ],
      "min": [
        0.143701434135437,
        0.0
      ],
      "type": "VEC2"
    },
    {
      "bufferView": 0,
      "byteOffset": 660168,
      "componentType": 5125,
      "count": 66,
      "type": "SCALAR"
    }
  ],
  "asset": {
    "extras": {
      "author": "the_Thorminator (https://sketchfab.com/the_Thorminator)",
      "license": "CC-BY-4.0 (http://creativecommons.org/licenses/by/4.0/)",
      "source": "https://sketchfab.com/3d-models/toxic-toby-dae-stylized-creation-e3f97c8265ad4ad1845880a6869e24ea",
      "title": "Toxic Toby | DAE Stylized Creation"
    },
    "generator": "Sketchfab-13.31.0",
    "version": "2.0"
  },
  "bufferViews": [
    {
      "buffer": 0,
      "byteLength": 660432,
      "name": "floatBufferViews",
      "target": 34963
    },
    {
      "buffer": 0,
      "byteLength": 362056,
      "byteOffset": 660432,
      "byteStride": 8,
      "name": "floatBufferViews",
      "target": 34962
    },
    {
      "buffer": 0,
      "byteLength": 868824,
      "byteOffset": 1022488,
      "byteStride": 12,
      "name": "floatBufferViews",
      "target": 34962
    },
    {
      "buffer": 0,
      "byteLength": 555984,
      "byteOffset": 1891312,
      "byteStride": 16,
      "name": "floatBufferViews",
      "target": 34962
    }
  ],
  "buffers": [
    {
      "byteLength": 2447296,
      "uri": "ltf.bin"
    }
  ],
  "images": [
    {
      "uri": "textures/lambert8_baseColor.png"
    },
    {
      "uri": "textures/lambert8_metallicRoughness.png"
    },
    {
      "uri": "textures/lambert8_emissive.jpeg"
    },
    {
      "uri": "textures/lambert8_normal.png"
    },
    {
      "uri": "textures/lambert4_metallicRoughness.png"
    },
    {
      "uri": "textures/aiStandardSurface5_baseColor.jpeg"
    },
    {
      "uri": "textures/aiStandardSurface5_metallicRoughness.png"
    },
    {
      "uri": "textures/aiStandardSurface5_emissive.jpeg"
    },
    {
      "uri": "textures/aiStandardSurface5_normal.png"
    },
    {
      "uri": "textures/lambert2_baseColor.png"
    },
    {
      "uri": "textures/lambert2_metallicRoughness.png"
    },
    {
      "uri": "textures/lambert2_normal.png"
    },
    {
      "uri": "textures/lambert7_baseColor.jpeg"
    },
    {
      "uri": "textures/lambert7_metallicRoughness.png"
    },
    {
      "uri": "textures/lambert7_normal.png"
    },
    {
      "uri": "textures/Ghost1_baseColor.png"
    }
  ],
  "materials": [
    {
      "alphaMode": "BLEND",
      "doubleSided": true,
      "emissiveFactor": [
        1.0,
        1.0,
        1.0
      ],
      "emissiveTexture": {
        "index": 2
      },
      "name": "lambert8",
      "normalTexture": {
        "index": 3
      },
      "occlusionTexture": {
        "index": 1
      },
      "pbrMetallicRoughness": {
        "baseColorTexture": {
          "index": 0
        },
        "metallicRoughnessTexture": {
          "index": 1
        }
      }
    },
    {
      "alphaMode": "BLEND",
      "doubleSided": true,
      "emissiveFactor": [
        1.0,
        1.0,
        1.0
      ],
      "emissiveTexture": {
        "index": 2
      },
      "name": "lambert4",
      "normalTexture": {
        "index": 3
      },
      "occlusionTexture": {
        "index": 4
      },
      "pbrMetallicRoughness": {
        "baseColorTexture": {
          "index": 0
        },
        "metallicFactor": 0.0,
        "metallicRoughnessTexture": {
          "index": 4
        }
      }
    },
    {
      "alphaMode": "BLEND",
      "doubleSided": true,
      "emissiveFactor": [
        1.0,
        1.0,
        1.0
      ],
      "emissiveTexture": {
        "index": 2
      },
      "name": "Props_Character",
      "normalTexture": {
        "index": 3
      },
      "occlusionTexture": {
        "index": 1
      },
      "pbrMetallicRoughness": {
        "baseColorTexture": {
          "index": 0
        },
        "metallicRoughnessTexture": {
          "index": 1
        }
      }
    },
    {
      "doubleSided": true,
      "emissiveFactor": [
        1.0,
        1.0,
        1.0
      ],
      "emissiveTexture": {
        "index": 7
      },
      "name": "aiStandardSurface5",
      "normalTexture": {
        "index": 8
      },
      "occlusionTexture": {
        "index": 6
      },
      "pbrMetallicRoughness": {
        "baseColorTexture": {
          "index": 5
        },
        "metallicFactor": 0.0,
        "metallicRoughnessTexture": {
          "index": 6
        }
      }
    },
    {
      "doubleSided": true,
      "name": "lambert2",
      "normalTexture": {
        "index": 11
      },
      "pbrMetallicRoughness": {
        "baseColorTexture": {
          "index": 9
        },
        "metallicRoughnessTexture": {
          "index": 10
        }
      }
    },
    {
      "doubleSided": true,
      "name": "lambert7",
      "normalTexture": {
        "index": 14
      },
      "pbrMetallicRoughness": {
        "baseColorTexture": {
          "index": 12
        },
        "metallicFactor": 0.0,
        "metallicRoughnessTexture": {
          "index": 13
        }
      }
    },
    {
      "doubleSided": true,
      "name": "aiStandardSurface1",
      "pbrMetallicRoughness": {
        "baseColorTexture": {
          "index": 5
        },
        "metallicFactor": 0.0,
        "roughnessFactor": 0.6
      }
    },
    {
      "alphaMode": "BLEND",
      "doubleSided": true,
      "name": "Ghost1",
      "pbrMetallicRoughness": {
        "baseColorTexture": {
          "index": 15
        },
        "metallicFactor": 0.0,
        "roughnessFactor": 0.6
      }
    }
  ],
  "meshes": [
    {
      "name": "props_charactrer_lambert8_0",
      "primitives": [
        {
          "attributes": {
            "NORMAL": 1,
            "POSITION": 0,
            "TANGENT": 2,
            "TEXCOORD_0": 3
          },
          "indices": 4,
          "material": 0,
          "mode": 4
        }
      ]
    },
    {
      "name": "props_charactrer_lambert4_0",
      "primitives": [
        {
          "attributes": {
            "NORMAL": 6,
            "POSITION": 5,
            "TANGENT": 7,
            "TEXCOORD_0": 8
          },
          "indices": 9,
          "material": 1,
          "mode": 4
        }
      ]
    },
    {
      "name": "props_charactrer_Props_Character_0",
      "primitives": [
        {
          "attributes": {
            "NORMAL": 11,
            "POSITION": 10,
            "TANGENT": 12,
            "TEXCOORD_0": 13
          },
          "indices": 14,
          "material": 2,
          "mode": 4
        }
      ]
    },
    {
      "name": "final_guy_in_pose_aiStandardSurface5_0",
      "primitives": [
        {
          "attributes": {
            "NORMAL": 16,
            "POSITION": 15,
            "TANGENT": 17,
            "TEXCOORD_0": 18,
            "TEXCOORD_1": 19
          },
          "indices": 20,
          "material": 3,
          "mode": 4
        }
      ]
    },
    {
      "name": "env_props_lambert2_0",
      "primitives": [
        {
          "attributes": {
            "NORMAL": 22,
            "POSITION": 21,
            "TANGENT": 23,
            "TEXCOORD_0": 24
          },
          "indices": 25,
          "material": 4,
          "mode": 4
        }
      ]
    },
    {
      "name": "Ground_L_lambert7_0",
      "primitives": [
        {
          "attributes": {
            "NORMAL": 27,
            "POSITION": 26,
            "TANGENT": 28,
            "TEXCOORD_0": 29
          },
          "indices": 30,
          "material": 5,
          "mode": 4
        }
      ]
    },
    {
      "name": "flies_aiStandardSurface1_0",
      "primitives": [
        {
          "attributes": {
            "NORMAL": 32,
            "POSITION": 31,
            "TEXCOORD_0": 33
          },
          "indices": 34,
          "material": 6,
          "mode": 4
        }
      ]
    },
    {
      "name": "Ghost2_Ghost1_0",
      "primitives": [
        {
          "attributes": {
            "NORMAL": 36,
            "POSITION": 35,
            "TEXCOORD_0": 37
          },
          "indices": 38,
          "material": 7,
          "mode": 4
        }
      ]
    }
  ],
  "nodes": [
    {
      "children": [
        1
      ],
      "matrix": [
        1.0,
        0.0,
        0.0,
        0.0,
        0.0,
        2.220446049250313e-16,
        -1.0,
        0.0,
        0.0,
        1.0,
        2.220446049250313e-16,
        0.0,
        0.0,
        0.0,
        0.0,
        1.0
      ],
      "name": "Sketchfab_model"
    },
    {
      "children": [
        2
      ],
      "matrix": [
        0.009999999776482582,
        0.0,
        0.0,
        0.0,
        0.0,
        0.0,
        0.009999999776482582,
        0.0,
        0.0,
        -0.009999999776482582,
        0.0,
        0.0,
        0.0,
        0.0,
        0.0,
        1.0
      ],
      "name": "6c5f67e433d843b0826fe8bbaffbf616.fbx"
    },
    {
      "children": [
        3
      ],
      "name": "RootNode"
    },
    {
      "children": [
        4,
        8,
        10,
        12,
        14,
        16
      ],
      "name": "scene_for_export"
    },
    {
      "children": [
        5,
        6,
        7
      ],
      "name": "props_charactrer"
    },
    {
      "mesh": 0,
      "name": "props_charactrer_lambert8_0"
    },
    {
      "mesh": 1,
      "name": "props_charactrer_lambert4_0"
    },
    {
      "mesh": 2,
      "name": "props_charactrer_Props_Character_0"
    },
    {
      "children": [
        9
      ],
      "name": "final_guy_in_pose"
    },
    {
      "mesh": 3,
      "name": "final_guy_in_pose_aiStandardSurface5_0"
    },
    {
      "children": [
        11
      ],
      "name": "env_props"
    },
    {
      "mesh": 4,
      "name": "env_props_lambert2_0"
    },
    {
      "children": [
        13
      ],
      "matrix": [
        40.2873649597168,
        0.0,
        0.0,
        0.0,
        0.0,
        1.0,
        0.0,
        0.0,
        0.0,
        0.0,
        40.2873649597168,
        0.0,
        0.0,
        0.0,
        0.0,
        1.0
      ],
      "name": "Ground_L"
    },
    {
      "mesh": 5,
      "name": "Ground_L_lambert7_0"
    },
    {
      "children": [
        15
      ],
      "name": "flies"
    },
    {
      "mesh": 6,
      "name": "flies_aiStandardSurface1_0"
    },
    {
      "children": [
        17
      ],
      "matrix": [
        8.257445182044926,
        -0.5528116750908938,
        -3.5324891790004154,
        0.0,
        3.563722042497888,
        0.5520163985111506,
        8.244067235408641,
        0.0,
        -0.40663714941388757,
        -12.579797568685018,
        1.018113521015403,
        0.0,
        0.5664955973625183,
        21.13466453552246,
        -9.941882133483887,
        1.0
      ],
      "name": "Ghost2"
    },
    {
      "mesh": 7,
      "name": "Ghost2_Ghost1_0"
    }
  ],
  "samplers": [
    {
      "magFilter": 9729,
      "minFilter": 9987,
      "wrapS": 10497,
      "wrapT": 10497
    }
  ],
  "scene": 0,
  "scenes": [
    {
      "name": "Sketchfab_Scene",
      "nodes": [
        0
      ]
    }
  ],
  "textures": [
    {
      "sampler": 0,
      "source": 0
    },
    {
      "sampler": 0,
      "source": 1
    },
    {
      "sampler": 0,
      "source": 2
    },
    {
      "sampler": 0,
      "source": 3
    },
    {
      "sampler": 0,
      "source": 4
    },
    {
      "sampler": 0,
      "source": 5
    },
    {
      "sampler": 0,
      "source": 6
    },
    {
      "sampler": 0,
      "source": 7
    },
    {
      "sampler": 0,
      "source": 8
    },
    {
      "sampler": 0,
      "source": 9
    },
    {
      "sampler": 0,
      "source": 10
    },
    {
      "sampler": 0,
      "source": 11
    },
    {
      "sampler": 0,
      "source": 12
    },
    {
      "sampler": 0,
      "source": 13
    },
    {
      "sampler": 0,
      "source": 14
    },
    {
      "sampler": 0,
      "source": 15
    }
  ]
}
